<svg width="48" height="56" xmlns="http://www.w3.org/2000/svg" xmlns:xlink="http://www.w3.org/1999/xlink" overflow="hidden"><defs><clipPath id="clip0"><rect x="380" y="403" width="48" height="56"/></clipPath></defs><g clip-path="url(#clip0)" transform="translate(-380 -403)"><path d="M29.5411 96.9796 29.0317 96.8813 28.9169 96.3228C28.8225 95.8634 28.8073 91.517 28.8313 71.8229 28.8473 58.6548 28.8913 47.7266 28.929 47.5379 28.9667 47.3491 29.0888 47.0972 29.2004 46.9781 29.312 46.859 30.0176 45.8508 30.7685 44.7377 33.2447 41.0671 33.0318 41.3473 33.4129 41.2555 33.8218 41.1569 75.7095 41.1455 76.1788 41.2437 76.4746 41.3057 76.4945 41.3321 76.5654 41.7531 76.6581 42.3023 76.6531 93.9164 76.5604 94.3662 76.522 94.5528 76.4013 94.7627 76.2761 94.8615 76.0701 95.0236 75.922 95.032 73.3695 95.032L70.6803 95.032 70.6354 95.5866C70.611 95.8929 70.5077 96.3123 70.405 96.5248 70.2494 96.8464 70.1671 96.9198 69.8998 96.9746 69.3497 97.0883 30.129 97.0928 29.5411 96.9796ZM72.5296 92.0431 73.154 91.8302 73.154 68.1547 73.154 44.4793 55.2808 44.4793 37.4079 44.4793 37.4632 44.8962C37.5254 45.3645 37.378 45.7519 37.0507 45.9812 36.8765 46.1032 38.3748 46.1156 53.2784 46.1156 64.4207 46.1156 69.7736 46.1443 69.9332 46.205 70.0623 46.2542 70.2389 46.3801 70.3247 46.4849 70.4105 46.5897 70.5207 46.7222 70.5686 46.7794 70.6279 46.8494 70.6563 54.2819 70.6563 69.5262 70.6563 81.9796 70.6803 92.2865 70.7087 92.4306L70.7611 92.6925 71.3331 92.474C71.6478 92.3538 72.1865 92.1598 72.5296 92.0431ZM51.5378 82.8868C56.0424 82.1567 59.6418 79.1049 61.1031 74.7774 61.8631 72.5261 61.8866 70.1656 61.1709 67.818 60.9889 67.2206 60.9719 67.1767 60.6303 66.4241 60.5081 66.1543 60.4083 65.9154 60.4083 65.8924 60.4083 65.8051 59.5066 64.3987 59.2134 64.0287 58.3535 62.9429 57.4384 62.0871 56.4065 61.4038 55.7347 60.9589 54.4115 60.2398 54.2634 60.2398 54.2235 60.2398 54.0684 60.1854 53.9188 60.1196 52.269 59.3894 49.6588 59.1665 47.6603 59.5854 45.2894 60.0822 43.3193 61.1325 41.6734 62.7773 40.6623 63.7878 40.6227 63.8351 39.9647 64.8346 38.0448 67.7512 37.5333 71.3985 38.5921 74.6218 38.8545 75.4203 39.4487 76.7574 39.7593 77.2481 40.853 78.9768 42.1398 80.261 43.7868 81.2684 44.6145 81.7742 45.0772 82.0061 45.6747 82.213 45.9389 82.3048 46.3759 82.4559 46.6457 82.5487 47.3132 82.7791 48.9333 83.0395 49.7722 83.0514 50.1513 83.0569 50.9458 82.9831 51.5378 82.8868ZM48.3465 81.0051C47.8428 80.6789 47.2395 80.0396 46.8422 79.4107 46.3949 78.7024 45.9398 77.6746 45.9398 77.3728L45.9398 77.119 47.6097 77.119 49.2796 77.119 49.3106 78.691C49.3276 79.5553 49.3283 80.4854 49.3121 80.7577 49.2827 81.2515 49.2819 81.253 49.006 81.253 48.8474 81.253 48.5661 81.1472 48.3466 81.0051ZM50.5044 79.1862 50.5044 77.119 52.1837 77.119 53.8629 77.119 53.8629 77.3414C53.8629 77.6057 53.456 78.5588 53.0405 79.268 52.4306 80.3089 51.3603 81.253 50.7907 81.253L50.5044 81.253ZM45.1921 80.438C44.1144 79.8381 43.3285 79.2007 42.3886 78.1653 42.0221 77.7618 41.8921 77.5524 41.8921 77.3668L41.8921 77.115 43.3757 77.1384 44.8593 77.1624 44.9413 77.4207C45.1149 77.9673 45.6208 79.0815 45.9453 79.6316 46.1418 79.9647 46.2843 80.3178 46.2843 80.4715 46.2843 80.7129 46.2597 80.7363 46.0044 80.7353 45.8475 80.7348 45.4905 80.6041 45.1921 80.438ZM53.6046 80.5373C53.6046 80.4281 53.7886 80.0146 54.0135 79.6186 54.2385 79.2226 54.5776 78.5079 54.7671 78.0301L55.1118 77.1624 56.5975 77.1384 58.0827 77.115 58.0827 77.3643C58.0827 77.5588 57.9216 77.7848 57.3496 78.3927 56.2219 79.5902 54.5412 80.7363 53.9123 80.7363 53.6485 80.7363 53.6046 80.7079 53.6046 80.5373ZM40.5701 75.6327C40.1008 74.5714 39.707 72.95 39.7555 72.2777L39.7822 71.9087 41.7845 71.8857C42.8858 71.8728 43.7888 71.8728 43.7912 71.8857 43.7936 71.8982 43.8304 72.3156 43.873 72.8129 43.9156 73.3106 44.0093 74.1051 44.0812 74.5784 44.1531 75.0522 44.2132 75.5848 44.2147 75.7629L44.2174 76.0856 42.4939 76.0856 40.7704 76.0856ZM45.3431 75.6332C45.113 74.5041 44.8606 72.1954 44.9436 71.979 44.978 71.8892 45.4398 71.8658 47.1428 71.8658L49.2985 71.8658 49.2985 73.9754 49.2985 76.0856 47.3669 76.0856 45.4353 76.0856 45.3431 75.6332ZM50.5044 73.9754 50.5044 71.8658 52.66 71.8658C54.5178 71.8658 54.8225 71.8837 54.8664 71.9974 54.9202 72.1376 54.6794 74.4826 54.5437 75.138 54.4998 75.3514 54.44 75.6517 54.4105 75.8058L54.3572 76.0856 52.4306 76.0856 50.5044 76.0856ZM55.5257 75.9439C55.4958 75.8661 55.5372 75.4691 55.6175 75.0612 55.6978 74.6537 55.8005 73.9325 55.8464 73.4587 55.8918 72.9849 55.9531 72.4328 55.9826 72.2314L56.0354 71.8658 58.0598 71.8658 60.0837 71.8658 60.0258 72.5331C59.9505 73.3994 59.6109 74.735 59.2742 75.4886L59.0069 76.0856 57.2937 76.0856C55.7836 76.0856 55.5736 76.0686 55.5257 75.9439ZM39.7965 70.6888C39.5246 70.4165 40.2147 67.429 40.7316 66.64L40.8651 66.4361 42.5197 66.4595 44.1743 66.4829 44.2014 66.7632C44.2162 66.9173 44.1634 67.4599 44.0839 67.9692 44.0044 68.4779 43.9105 69.2674 43.8751 69.7227 43.8397 70.1786 43.7837 70.595 43.7506 70.6489 43.6848 70.7551 39.9014 70.7935 39.7965 70.6888ZM44.948 70.6573C44.8374 70.4783 45.0943 68.1028 45.3507 66.9348 45.418 66.6276 45.487 66.5134 45.6256 66.4794 45.7274 66.4545 46.5857 66.445 47.5331 66.4585L49.2555 66.4829 49.3005 66.8276C49.3252 67.0171 49.3252 67.9667 49.3005 68.9377L49.2555 70.7027 47.13 70.7262C45.7004 70.7416 44.986 70.7192 44.948 70.6578ZM50.5244 68.6145 50.5473 66.4829 52.4326 66.4829 54.3178 66.4829 54.4335 66.9138C54.5886 67.4929 54.9153 70.3092 54.8549 70.5526L54.807 70.7461 52.654 70.7461 50.5015 70.7461ZM56.011 70.7262C56.0085 70.7132 55.9337 70.0439 55.8454 69.2389 55.7566 68.4335 55.6339 67.5108 55.5731 67.1886 55.4778 66.6839 55.4803 66.5907 55.5886 66.5213 55.6589 66.4764 56.4359 66.45 57.3436 66.462L58.9725 66.4829 59.1256 66.7577C59.3251 67.1143 59.7595 68.419 59.8807 69.0235 59.933 69.2838 59.9854 69.7686 59.9979 70.1003L60.0208 70.7027 58.0184 70.7262C56.9172 70.7386 56.014 70.7386 56.011 70.7262ZM41.8921 65.2221C41.8921 64.4985 45.1728 61.9619 46.1092 61.9619 46.4855 61.9619 46.4549 62.2392 45.9964 62.9828 45.6634 63.5229 45.3588 64.1643 44.9578 65.1698L44.829 65.4929 43.3606 65.4929 41.8921 65.4929ZM45.9399 65.256C45.94 64.9408 46.1629 64.3823 46.602 63.5972 47.3594 62.2432 48.2965 61.3589 48.9744 61.3589L49.2985 61.3589 49.2985 63.4257 49.2985 65.4929 47.6192 65.4929 45.9398 65.4929ZM50.5044 63.4257 50.5044 61.3589 50.7852 61.3589C51.2919 61.3589 51.9478 61.8497 52.6809 62.7768 53.1228 63.3364 53.8629 64.8635 53.8629 65.2171L53.8629 65.4929 52.1837 65.4929 50.5044 65.4929ZM54.9432 65.0406C54.7422 64.4695 54.2913 63.5434 53.9038 62.9055 53.7392 62.6347 53.6046 62.3115 53.6046 62.1873 53.6046 61.9953 53.642 61.9619 53.8584 61.9619 54.1696 61.9619 55.21 62.4911 55.993 63.0481 56.3137 63.2761 56.9147 63.7992 57.3291 64.2102 57.9546 64.8306 58.0827 65.0032 58.0827 65.2251L58.0827 65.4929 56.593 65.4929 55.1028 65.4929Z" fill="#7592FB" transform="matrix(1.00395 0 0 1 351.065 361.881)"/></g></svg>