<svg width="56" height="43" xmlns="http://www.w3.org/2000/svg" xmlns:xlink="http://www.w3.org/1999/xlink" overflow="hidden"><defs><clipPath id="clip0"><rect x="376" y="317" width="56" height="43"/></clipPath></defs><g clip-path="url(#clip0)" transform="translate(-376 -317)"><path d="M47.3123 3.54513C43.6428 1.86512 39.7689 0.673259 35.7896-1.34063e-07 35.245 0.973431 34.7523 1.97496 34.3135 3.0004 30.0748 2.36167 25.7643 2.36167 21.5256 3.0004 21.0865 1.97507 20.5938 0.973549 20.0495-3.35158e-08 16.0677 0.678943 12.1912 1.87363 8.51798 3.55392 1.22564 14.3431-0.751199 24.8642 0.237221 35.2361L0.237221 35.2361C4.50781 38.3914 9.2878 40.791 14.3694 42.3307 15.5137 40.7918 16.5262 39.1591 17.3962 37.4501 15.7437 36.8329 14.1488 36.0715 12.6298 35.1746 13.0296 34.8846 13.4205 34.5859 13.7983 34.296 22.7468 38.5042 33.1055 38.5042 42.054 34.296 42.4361 34.6079 42.8271 34.9066 43.2225 35.1746 41.7006 36.0729 40.1027 36.8358 38.4473 37.4545 39.3163 39.1627 40.3288 40.794 41.4741 42.3307 46.5603 40.7972 51.3438 38.3986 55.6151 35.2404L55.6151 35.2404C56.7748 23.2125 53.6338 12.788 47.3123 3.54513ZM18.6482 28.8575C15.8938 28.8575 13.6182 26.3579 13.6182 23.2828 13.6182 20.2077 15.8147 17.6861 18.6394 17.6861 21.4641 17.6861 23.7221 20.2077 23.6737 23.2828 23.6254 26.3579 21.4553 28.8575 18.6482 28.8575ZM37.2041 28.8575C34.4453 28.8575 32.1785 26.3579 32.1785 23.2828 32.1785 20.2077 34.375 17.6861 37.2041 17.6861 40.0332 17.6861 42.2736 20.2077 42.2253 23.2828 42.177 26.3579 40.0112 28.8575 37.2041 28.8575Z" fill="#FFFFFF" transform="matrix(1 0 0 1.01581 376.074 317)"/></g></svg>