<svg width="56" height="57" xmlns="http://www.w3.org/2000/svg" xmlns:xlink="http://www.w3.org/1999/xlink" overflow="hidden"><defs><clipPath id="clip0"><rect x="848" y="310" width="56" height="57"/></clipPath></defs><g clip-path="url(#clip0)" transform="translate(-848 -310)"><path d="M39.6667 16.3333 36.3767 19.6233 42.3967 25.6667 18.6667 25.6667 18.6667 30.3333 42.3967 30.3333 36.3767 36.3533 39.6667 39.6667 51.3333 28ZM9.33333 11.6667 28 11.6667 28 7 9.33333 7C6.76667 7 4.66667 9.1 4.66667 11.6667L4.66667 44.3333C4.66667 46.9 6.76667 49 9.33333 49L28 49 28 44.3333 9.33333 44.3333 9.33333 11.6667Z" fill="#FFFFFF" transform="matrix(1 0 0 1.01786 848 310)"/></g></svg>