<?xml version="1.0" encoding="UTF-8" standalone="no"?>
<svg
   height="28"
   width="28"
   version="1.1"
   id="svg20"
   sodipodi:docname="studybot_logo.svg"
   inkscape:version="1.1.1 (3bf5ae0d25, 2021-09-20)"
   inkscape:export-filename="C:\Users\Niko\Desktop\studybot_logo.png"
   inkscape:export-xdpi="3510.8572"
   inkscape:export-ydpi="3510.8572"
   xmlns:inkscape="http://www.inkscape.org/namespaces/inkscape"
   xmlns:sodipodi="http://sodipodi.sourceforge.net/DTD/sodipodi-0.dtd"
   xmlns="http://www.w3.org/2000/svg"
   xmlns:svg="http://www.w3.org/2000/svg">
  <defs
     id="defs24">
    <style
       id="style841">.cls-1{fill:#fff;}</style>
  </defs>
  <sodipodi:namedview
     id="namedview22"
     pagecolor="#ffffff"
     bordercolor="#eeeeee"
     borderopacity="1"
     inkscape:pageshadow="0"
     inkscape:pageopacity="0"
     inkscape:pagecheckerboard="0"
     showgrid="false"
     height="25px"
     inkscape:zoom="14.979167"
     inkscape:cx="24.600834"
     inkscape:cy="10.114047"
     inkscape:window-width="1920"
     inkscape:window-height="1009"
     inkscape:window-x="-8"
     inkscape:window-y="-8"
     inkscape:window-maximized="1"
     inkscape:current-layer="g18" />
  <g
     transform="translate(2,-1025.3986)"
     id="g18">
    <path
       d="m 3,1035.4 v 2 1 3 1 5 1 c 0,1.1 0.8954,2 2,2 h 14 c 1.105,0 2,-0.9 2,-2 v -1 -5 -4 -3 z"
       fill="#16a085"
       id="path2"
       style="fill:#2f3136;fill-opacity:1" />
    <path
       d="m 3,1034.4 v 2 1 3 1 5 1 c 0,1.1 0.8954,2 2,2 h 14 c 1.105,0 2,-0.9 2,-2 v -1 -5 -4 -3 z"
       fill="#ecf0f1"
       id="path4" />
    <path
       d="m 3,1033.4 v 2 1 3 1 5 1 c 0,1.1 0.8954,2 2,2 h 14 c 1.105,0 2,-0.9 2,-2 v -1 -5 -4 -3 z"
       fill="#bdc3c7"
       id="path6" />
    <path
       d="m 3,1032.4 v 2 1 3 1 5 1 c 0,1.1 0.8954,2 2,2 h 14 c 1.105,0 2,-0.9 2,-2 v -1 -5 -4 -3 z"
       fill="#ecf0f1"
       id="path8" />
    <path
       d="m 5,1028.4 c -1.1046,0 -2,0.9 -2,2 v 1 4 2 1 3 1 5 1 c 0,1.1 0.8954,2 2,2 h 2 v -1 H 5.5 c -0.8284,0 -1.5,-0.7 -1.5,-1.5 0,-0.9 0.6716,-1.5 1.5,-1.5 H 18 19 c 1.105,0 2,-0.9 2,-2 v -1 -5 -4 -3 -1 c 0,-1.1 -0.895,-2 -2,-2 h -4 z"
       fill="#16a085"
       id="path10"
       style="fill:#2f3136;fill-opacity:1" />
    <path
       d="m 8,1028.4 v 18 h 1 9 1 c 1.105,0 2,-0.9 2,-2 v -1 -5 -4 -3 -1 c 0,-1.1 -0.895,-2 -2,-2 H 15 9 Z"
       fill="#1abc9c"
       id="path12"
       style="fill:#40444b;fill-opacity:1" />
    <path
       d="m 7,1048.4 v 2 2 l 2.5,-2 2.5,2 v -2 -2 z"
       fill="#e74c3c"
       id="path14" />
    <rect
       height="1"
       width="5"
       y="1047.4"
       x="7"
       fill="#c0392b"
       id="rect16" />
  </g>
  <path
     class="cls-1"
     d="m 19.253809,7.6225348 a 12.518487,12.518487 0 0 0 -3.122777,-0.9607624 8.5790033,8.5790033 0 0 0 -0.400019,0.8131354 11.629156,11.629156 0 0 0 -3.465651,0 8.6159097,8.6159097 0 0 0 -0.40002,-0.8131354 12.606586,12.606586 0 0 0 -3.1251576,0.9631434 C 6.7638952,10.548873 6.2281534,13.400207 6.4960243,16.211061 v 0 a 12.587538,12.587538 0 0 0 3.8299547,1.922716 9.2504652,9.2504652 0 0 0 0.820279,-1.322686 8.1456481,8.1456481 0 0 1 -1.291731,-0.616697 c 0.108343,-0.07858 0.214296,-0.159532 0.316682,-0.238107 a 8.9968819,8.9968819 0 0 0 7.657528,0 c 0.103571,0.08454 0.209534,0.165485 0.316682,0.238107 a 8.176602,8.176602 0 0 1 -1.294112,0.617889 9.1671275,9.1671275 0 0 0 0.820279,1.321494 12.530393,12.530393 0 0 0 3.832336,-1.921524 v 0 c 0.314302,-3.259689 -0.536932,-6.08483 -2.250113,-8.5897182 z m -7.768248,6.8598682 c -0.746465,0 -1.363163,-0.677414 -1.363163,-1.51079 0,-0.833375 0.595268,-1.516743 1.360782,-1.516743 0.765515,0 1.377449,0.683368 1.364355,1.516743 -0.0131,0.833376 -0.601223,1.51079 -1.361974,1.51079 z m 5.028824,0 c -0.747656,0 -1.361973,-0.677414 -1.361973,-1.51079 0,-0.833375 0.595267,-1.516743 1.361973,-1.516743 0.766706,0 1.373878,0.683368 1.360783,1.516743 -0.0131,0.833376 -0.600031,1.51079 -1.360783,1.51079 z"
     id="path845"
     style="stroke-width:0.119054" />
</svg>
